/* XPM */
static char *_7d62c9a536041b995c72718ec135ea4SoihkwR5PayTMBNz[] = {
/* columns rows colors chars-per-pixel */
"32 32 118 2 ",
"   c None",
".  c black",
"X  c #010101",
"o  c #020202",
"O  c gray1",
"+  c #040304",
"@  c #020404",
"#  c #040404",
"$  c #060606",
"%  c #070707",
"&  c gray3",
"*  c #090909",
"=  c gray4",
"-  c #0B0B0B",
";  c #0C0C0C",
":  c gray5",
">  c #0E0E0E",
",  c #101010",
"<  c gray7",
"1  c #131313",
"2  c gray8",
"3  c gray9",
"4  c #181818",
"5  c #1B1B1B",
"6  c #202020",
"7  c gray13",
"8  c #222222",
"9  c #232323",
"0  c #252525",
"q  c #282828",
"w  c #2A2A2A",
"e  c gray17",
"r  c #2D2D2D",
"t  c gray18",
"y  c gray19",
"u  c #343434",
"i  c #353535",
"p  c gray21",
"a  c #373737",
"s  c gray22",
"d  c #393939",
"f  c #3A3A3A",
"g  c #3C3C3C",
"h  c #510001",
"j  c #7C0001",
"k  c #7D0A01",
"l  c #694F01",
"z  c #6A4E02",
"x  c #414141",
"c  c gray26",
"v  c #444444",
"b  c #494949",
"n  c gray29",
"m  c #4C4C4C",
"M  c gray31",
"N  c #505050",
"B  c #515151",
"V  c gray32",
"C  c #555555",
"Z  c #565656",
"A  c #585858",
"S  c #5B5B5B",
"D  c gray37",
"F  c #5F5F5F",
"G  c #606060",
"H  c gray38",
"J  c #626262",
"K  c gray39",
"L  c #646464",
"P  c #686868",
"I  c #747474",
"U  c #767676",
"Y  c #7E7E7E",
"T  c #810001",
"R  c #E30001",
"E  c #EF0202",
"W  c #F10103",
"Q  c #FC0000",
"!  c #FD0000",
"~  c #FC0101",
"^  c #FC0E00",
"/  c #F61201",
"(  c #FD1A00",
")  c #CE3C00",
"_  c #9E7708",
"`  c #B16509",
"'  c #FB7C01",
"]  c #D09D02",
"[  c #D78312",
"{  c #CDA11E",
"}  c #E0A907",
"|  c #EFB302",
" . c #F2B703",
".. c #FCBA02",
"X. c #FABD03",
"o. c #F9BF02",
"O. c #FDBD01",
"+. c #FDBE01",
"@. c #FCBF01",
"#. c #FCBC02",
"$. c #F2B809",
"%. c #F6BE19",
"&. c #FBB918",
"*. c #838383",
"=. c gray52",
"-. c gray54",
";. c #8B8B8B",
":. c gray60",
">. c #9B9B9B",
",. c #9D9D9D",
"<. c #A4A4A4",
"1. c gray67",
"2. c #B6B6B6",
"3. c #BBBBBB",
"4. c #D7C590",
"5. c #F0D9A0",
"6. c #C5C5C5",
"7. c #E6E6E6",
/* pixels */
"                                                                ",
"                                                                ",
"                                                                ",
"                                                                ",
"                                                  .             ",
"                              8               5 8               ",
"                              #               l z               ",
"                                & ] o. .| O.O.X...              ",
"                                     .~ ^ ( ( O.O.              ",
"                                    | ~ W E ~ O. .              ",
"                                  %.&.R T k / $._ -             ",
"                                : 4.5.h j ) '                   ",
"                  : < & . # . 0 b c c 5.` [ 5.#                 ",
"                  . & . . . . 0 K < .   } { 4.. .               ",
"              : : K K F K F F g . M S . @         :             ",
"              q t U *.Y U K K c 4 u d .           <             ",
"            & c F :.2.1.:.K K B d & .                           ",
"        . 3 B S F 3.7.6.:.K F B d t t #                         ",
"        . 3 F K F ,.<.*.L K K B d d u . #                       ",
"        . 3 F K K -.-.I K K F b u d d # <                       ",
"        . 3 K K K F K F K K Z d d d d & #                       ",
"        . : v v c K K B v v g d d d d # #                       ",
"        . : d d u K F b d d d d u d u . .                       ",
"        . & u d u d d d u d d d d Z S .                         ",
"            3 q d d u d d d u c B t 8                           ",
"              < 4 d d v M M B c q :                             ",
"              . . d d M K K K g .                               ",
"                  . . # . . . .                                 ",
"                  . # & # . .                                   ",
"                                                                ",
"                                                                ",
"                                                                "
};
