/* XPM */
static char *_9bae606a1434758c7c8924c13fe7ad37KpcpUnTbD2byxAR[] = {
/* columns rows colors chars-per-pixel */
"32 29 46 1 ",
"  c None",
". c black",
"X c #010101",
"o c #020202",
"O c gray1",
"+ c #040404",
"@ c #060606",
"# c #0B0B0B",
"$ c #0C0C0C",
"% c #101010",
"& c gray19",
"* c #3F3F3F",
"= c #5B5B5B",
"- c gray36",
"; c #767676",
": c #797979",
"> c gray52",
", c gray53",
"< c #888888",
"1 c #898989",
"2 c gray54",
"3 c gray55",
"4 c #909090",
"5 c gray63",
"6 c #A2A2A2",
"7 c gray65",
"8 c #A7A7A7",
"9 c gray67",
"0 c #ACACAC",
"q c gray68",
"w c #AEAEAE",
"e c #AFAFAF",
"r c gray69",
"t c #B1B1B1",
"y c #B2B2B2",
"u c #B4B4B4",
"i c gray71",
"p c #B7B7B7",
"a c #B9B9B9",
"s c gray73",
"d c #CDCDCD",
"f c gray81",
"g c #D0D0D0",
"h c #D2D2D2",
"j c LightGray",
"k c #D5D5D5",
/* pixels */
"                                ",
"                                ",
"            XXXXXXX             ",
"           Xsjdjdw1XX           ",
"          #wjrrrrw111*          ",
"         Xwwjwrrwrr11-X         ",
"         Xwwjwrrrwr11=X         ",
"       XXwjjwwrrrrrww11X        ",
"       XXwrrwrrrrrwww61X        ",
"      Xwwjjrrwwwrwurw611X       ",
"      XrrwXXXwrrXuuXXXX1X       ",
"      XwwdXwXrrrXwwXX;X1X       ",
"      XwrjXuXrwrXwwXX:X1X       ",
"      XwwdXXuwwrXwrXXXX1X       ",
"      XwwjXXsuurXrwX+611X       ",
"      XwrdXrX9urXwwX+611X       ",
"      Xrrrduwwrrwrwrr611X       ",
"      Xwwwdwrrwwwwwrw611X       ",
"      Xwrjdwwwwrrwrww611$       ",
"      Xrrwjrwrrwwrwrw64,%       ",
"      Xwrdjwwrwrrwrwr81,X       ",
"      Xrwrjwrwrwwrwrw8,1X       ",
"      Xrrddrwrwrrwrww611XXXXX   ",
"      +wrdjwrwrwwrwrr611XXXXX   ",
"      Xrrwkrrrrrrrrrr611X&&&XX  ",
"      X11111331131111111X&&&XX  ",
"      XXXXXXXXXXXXXXXXXXXXXXXX  ",
"                                ",
"                                "
};
