/* XPM */
static char *f247756eb1414636c50f1d11eb5bb5f41VM5YeftBPHZRH8y[] = {
/* columns rows colors chars-per-pixel */
"32 32 5 1 ",
"  c None",
". c black",
"X c #7B7B7B",
"o c gray50",
"O c white",
/* pixels */
"                                ",
"                                ",
"                                ",
"           ..........           ",
"           ..........           ",
"       ....OOOOOOOOOO...        ",
"     ..OOOOOOOOOOOOOOOOO..      ",
"     ..OOOOOOOOOOOOOOOOO..      ",
"     ..OOOOOOOOOOOOOOOOO..      ",
"     ..OOOOOOOOOOOOOOOOO..      ",
"    .OOOOOOOOOOOOOOOOOOOOO..    ",
"    .OOOOOOOOOOOOOOOOOOOOO..    ",
"    .OOOOOOOOOOOOOOOOOOOOO..    ",
"  ..OOO.......OOOO......OOOO.   ",
"  ..OOO.......OOOO......OOOO.   ",
"  ..O.........OOOO........OO.   ",
"  ..O.........OOOO........OO.   ",
"  ..O.........OOOO........OO.   ",
"  ..O.........OOOO........OO.   ",
"  ..O.........OOOO........OO.   ",
"    .OO.....OOOOOOO.....OO..    ",
"    .OO.....OOOOOOO.....OO..    ",
"     ..OOOOOOO....OOOOOO..      ",
"       ..OOOOO....OOOOo.        ",
"       ..OOOOO....OOOOo.        ",
"       ..OOOOOOOOOOOOOo.        ",
"       ..OOOOOOOOOOOOOo.        ",
"       ..OOO..OOOO.OOOo.        ",
"       ..OOO..OOOO.OOOX.        ",
"         .............          ",
"                                ",
"                                "
};
